<svg width="14" height="12" viewBox="0 0 14 12" fill="none" xmlns="http://www.w3.org/2000/svg">
<path d="M13.7348 3.82648C13.8414 3.73293 14 3.82044 14 3.96831V10.1396C14 10.9393 13.4121 11.5881 12.6875 11.5881H1.3125C0.587891 11.5881 0 10.9393 0 10.1396V3.97133C0 3.82044 0.155859 3.73595 0.265234 3.8295C0.877734 4.35458 1.68984 5.0215 4.47891 7.25763C5.05586 7.72236 6.0293 8.70011 7 8.69407C7.97617 8.70313 8.96875 7.70426 9.52383 7.25763C12.3129 5.0215 13.1223 4.35156 13.7348 3.82648ZM7 7.72538C7.63438 7.73745 8.54766 6.84421 9.00703 6.47604C12.6355 3.56997 12.9117 3.31648 13.7484 2.59223C13.907 2.45643 14 2.24519 14 2.02188V1.44851C14 0.648811 13.4121 0 12.6875 0H1.3125C0.587891 0 0 0.648811 0 1.44851V2.02188C0 2.24519 0.0929687 2.45341 0.251563 2.59223C1.08828 3.31346 1.36445 3.56997 4.99297 6.47604C5.45234 6.84421 6.36562 7.73745 7 7.72538Z" fill="#E0E0E0"/>
</svg>
